{"title":"Geordie Shore Complete Season 10 (2015) WEB-DL","uid":11966462,"size":4127174015,"categoryP":"video","categoryS":"tv_shows","magnet":"?xt=urn:btih:0649f1f28afb6e88296d281d5194644f549fc04d&amp;dn=Geordie+Shore+Complete+Season+10+%282015%29+WEB-DL&amp;tr=udp%3A%2F%2Ftracker.openbittorrent.com%3A80&amp;tr=udp%3A%2F%2Fopen.demonii.com%3A1337&amp;tr=udp%3A%2F%2Ftracker.coppersurfer.tk%3A6969&amp;tr=udp%3A%2F%2Fexodus.desync.com%3A6969","seeders":54,"leechers":14,"uploader":"jmanwf","files":16,"time":1432726186,"description":"ALL 8 Episodes of Season 10\n\n\nALL IN MP4\n\n\nAll Have English Subtitles\n\n\n\nDescription\n\nGeordie Shore season 10 promises even more mortal mayhem, with two new housemates in the mix! How will the lasses react to Chloe and will the lads welcome Nathan into the buck squad with open arms? This season also sees the sad departure of an original Geordie Shore family member.\n\n\n\n\nVideo\nID : 2\nFormat : AVC\nFormat/Info : Advanced Video Codec\nFormat profile : &lt;a class=&quot;__cf_email__&quot; href=&quot;/cdn-cgi/l/email-protection&quot; data-cfemail=&quot;a9ebc8daccc5c0c7cce9e59a8799&quot;&gt;[email&amp;#160;protected]&lt;/a&gt;&lt;script data-cfhash='f9e31' type=&quot;text/javascript&quot;&gt;\n/* &lt;![CDATA[ */!function(){try{var t=&quot;currentScript&quot;in document?document.currentScript:function(){for(var t=document.getElementsByTagName(&quot;script&quot;),e=t.length;e--;)if(t[e].getAttribute(&quot;data-cfhash&quot;))return t[e]}();if(t&amp;&amp;t.previousSibling){var e,r,n,i,c=t.previousSibling,a=c.getAttribute(&quot;data-cfemail&quot;);if(a){for(e=&quot;&quot;,r=parseInt(a.substr(0,2),16),n=2;a.length-n;n+=2)i=parseInt(a.substr(n,2),16)^r,e+=String.fromCharCode(i);e=document.createTextNode(e),c.parentNode.replaceChild(e,c)}t.parentNode.removeChild(t);}}catch(u){}}()/* ]]&gt; */&lt;/script&gt;\nFormat settings, CABAC : No\nFormat settings, ReFrames : 1 frame\nCodec ID : avc1\nCodec ID/Info : Advanced Video Coding\nDuration : 40mn 58s\nBit rate mode : Variable\nBit rate : 1 530 Kbps\nWidth : 640 pixels\nHeight : 480 pixels\nDisplay aspect ratio : 16:9\nFrame rate mode : Constant\nFrame rate : 25.000 fps\nColor space : YUV\nChroma subsampling : 4:2:0\nBit depth : 8 bits\nScan type : Progressive\nBits/(Pixel*Frame) : 0.199\nStream size : 448 MiB (92%)\nLanguage : English\nEncoded date : UTC 2015-05-13 08:44:38\nTagged date : UTC 2015-05-13 08:44:52\nColor primaries : BT.601-6 525, BT.1358 525, BT.1700 NTSC, SMPTE 170M\nTransfer characteristics : BT.709-5, BT.1361\nMatrix coefficients : BT.601-6 525, BT.1358 525, BT.1700 NTSC, SMPTE 170M\n\nAudio\nID : 1\nFormat : AAC\nFormat/Info : Advanced Audio Codec\nFormat profile : LC\nCodec ID : 40\nDuration : 40mn 57s\nDuration_LastFrame : -18ms\nBit rate mode : Variable\nBit rate : 126 Kbps\nMaximum bit rate : 190 Kbps\nChannel(s) : 2 channels\nChannel positions : Front: L R\nSampling rate : 44.1 KHz\nCompression mode : Lossy\nStream size : 36.8 MiB (8%)\nLanguage : English\nEncoded date : UTC 2015-05-13 08:43:25\nTagged date : UTC 2015-05-13 08:44:37\n\n\n\n &lt;a href=&quot;\nhttps://itunes.apple.com/au/tv-season/geordie-shore-season-10/id979550691&quot; rel=&quot;nofollow&quot; target=&quot;_NEW&quot;&gt;\nhttps://itunes.apple.com/au/tv-season/geordie-shore-season-10/id979550691&lt;/a&gt;","torrent":{"xt":"urn:btih:0649f1f28afb6e88296d281d5194644f549fc04d","amp;dn":"Geordie+Shore+Complete+Season+10+%282015%29+WEB-DL","amp;tr":["udp%3A%2F%2Ftracker.openbittorrent.com%3A80","udp%3A%2F%2Fopen.demonii.com%3A1337","udp%3A%2F%2Ftracker.coppersurfer.tk%3A6969","udp%3A%2F%2Fexodus.desync.com%3A6969"],"infoHash":"0649f1f28afb6e88296d281d5194644f549fc04d","infoHashBuffer":{"type":"Buffer","data":[6,73,241,242,138,251,110,136,41,109,40,29,81,148,100,79,84,159,192,77]},"announce":[],"urlList":[]}}